<?xml version="1.0" encoding="UTF-8"?>
<svg version="1.1" xmlns="http://www.w3.org/2000/svg" width="272" height="241">
<path d="M0 0 C50.48716466 36.94217157 85.08890698 113.65662717 102.4765625 171.60546875 C102.69844238 172.34361816 102.92032227 173.08176758 103.14892578 173.84228516 C106.48019463 185.39088089 108.33969471 201.39511874 102.80078125 212.53125 C97.12908644 221.41523214 90.97687933 225.73242412 80.75366211 228.19091797 C69.17788341 230.29831287 56.11758529 229.69603256 45.4765625 224.60546875 C44.56003906 224.18136719 43.64351562 223.75726563 42.69921875 223.3203125 C12.47064868 208.10003669 -4.83154472 174.4260339 -21.5234375 146.60546875 C-22.2258098 145.43784574 -22.9282887 144.27028685 -23.63085938 143.1027832 C-27.45493503 136.7440096 -31.25969564 130.37445328 -35.03125 123.984375 C-44.1584655 108.52500714 -53.38643472 93.15217893 -63.01855469 78 C-64.02140358 76.40429235 -65.00656402 74.79732985 -65.97363281 73.1796875 C-66.41545898 72.44363281 -66.85728516 71.70757812 -67.3125 70.94921875 C-67.6935791 70.30146484 -68.0746582 69.65371094 -68.46728516 68.98632812 C-68.81581543 68.53064453 -69.1643457 68.07496094 -69.5234375 67.60546875 C-70.1834375 67.60546875 -70.8434375 67.60546875 -71.5234375 67.60546875 C-73.07802396 69.70498921 -73.07802396 69.70498921 -74.6484375 72.44140625 C-75.57692505 73.99432373 -75.57692505 73.99432373 -76.52416992 75.57861328 C-77.18392822 76.70122559 -77.84368652 77.82383789 -78.5234375 78.98046875 C-79.20846493 80.13671914 -79.89376943 81.29280542 -80.5793457 82.44873047 C-90.4812228 99.19127271 -99.70091573 116.27047207 -108.5234375 133.60546875 C-108.94012695 134.42128418 -109.35681641 135.23709961 -109.78613281 136.07763672 C-118.1944932 152.68952956 -127.39209579 171.87115721 -129.1484375 190.60546875 C-129.22320312 191.36859375 -129.29796875 192.13171875 -129.375 192.91796875 C-129.42398438 193.47484375 -129.47296875 194.03171875 -129.5234375 194.60546875 C-114.85254421 192.82903491 -105.31345043 183.03272989 -96.49609375 171.83984375 C-85.05189511 156.75163239 -75.86855452 140.03670504 -66.5234375 123.60546875 C-63.1861443 126.66994228 -60.9741604 129.87115813 -58.66796875 133.76171875 C-58.32086349 134.34586548 -57.97375824 134.93001221 -57.61613464 135.53186035 C-56.88804668 136.76055432 -56.16293809 137.9910182 -55.44067383 139.22314453 C-54.33660126 141.10433779 -53.22081004 142.97819865 -52.10351562 144.8515625 C-51.3951239 146.05036232 -50.68741784 147.24956762 -49.98046875 148.44921875 C-49.34085205 149.53396484 -48.70123535 150.61871094 -48.04223633 151.73632812 C-46.77277712 154.13444492 -45.8287688 155.92845204 -45.5234375 158.60546875 C-57.11933591 185.08992808 -80.27539799 213.99386527 -106.890625 225.6328125 C-113.89701381 228.22122617 -119.92979707 228.94321122 -127.3359375 228.91796875 C-128.73682617 228.94213867 -128.73682617 228.94213867 -130.16601562 228.96679688 C-141.48051216 228.97464871 -149.85507119 226.013352 -158.0234375 218.1640625 C-164.3771252 211.22417147 -165.51270199 202.70918027 -165.5234375 193.60546875 C-162.75046375 149.23788872 -136.63588774 106.96306673 -114.7734375 69.48046875 C-114.42117096 68.87481079 -114.06890442 68.26915283 -113.70596313 67.6451416 C-108.92334106 59.43773792 -103.8879102 51.44663964 -98.5234375 43.60546875 C-97.83628662 42.59613281 -97.83628662 42.59613281 -97.13525391 41.56640625 C-88.97206711 29.68053918 -80.00362913 18.54513474 -69.5234375 8.60546875 C-64.51812312 12.10918882 -61.24127656 16.56307323 -57.6484375 21.41796875 C-56.99568848 22.29525635 -56.34293945 23.17254395 -55.67041016 24.07641602 C-48.16271546 34.28727661 -41.29212344 44.89557012 -34.5234375 55.60546875 C-33.99073242 56.4459375 -33.45802734 57.28640625 -32.90917969 58.15234375 C-24.96855722 70.72124334 -17.39834976 83.50903326 -9.82666016 96.30175781 C-2.46316382 108.73821088 5.00432746 121.10861594 12.54248047 133.43994141 C13.80158669 135.5007305 15.05853615 137.56283939 16.31298828 139.62646484 C34.58418761 172.38695541 34.58418761 172.38695541 63.4765625 193.60546875 C65.80691009 193.9590726 68.14007095 194.2950452 70.4765625 194.60546875 C64.76010268 155.62465699 42.74182747 117.82849425 22.4765625 84.60546875 C21.95465332 83.74356934 21.43274414 82.88166992 20.89501953 81.99365234 C11.70146926 66.86934367 1.7372522 52.42857541 -10.5234375 39.60546875 C-11.56177734 38.47238281 -11.56177734 38.47238281 -12.62109375 37.31640625 C-25.60142529 23.60578382 -42.55722083 15.09295584 -60.4140625 9.61328125 C-62.96101396 8.78776181 -65.18564144 7.89009926 -67.5234375 6.60546875 C-46.73742975 -11.51330792 -23.40307356 -16.30581947 0 0 Z " fill="#000000" transform="translate(165.5234375,11.39453125)"/>
</svg>
